<?xml version="1.0" encoding="utf-8"?>
<!-- Generator: Adobe Illustrator 18.0.0, SVG Export Plug-In . SVG Version: 6.00 Build 0)  -->
<!DOCTYPE svg PUBLIC "-//W3C//DTD SVG 1.1//EN" "http://www.w3.org/Graphics/SVG/1.1/DTD/svg11.dtd">
<svg version="1.1" id="Layer_1" xmlns="http://www.w3.org/2000/svg" xmlns:xlink="http://www.w3.org/1999/xlink" x="0px" y="0px"
	 viewBox="0 0 308 295.4" enable-background="new 0 0 308 295.4" xml:space="preserve">
<path fill="#CD6799" d="M265,132.7c-10.8,0.1-20.1,2.6-27.9,6.5c-2.9-5.7-5.8-10.7-6.2-14.5c-0.6-4.4-1.2-7-0.5-12.1
	c0.7-5.2,3.7-12.5,3.6-13.1c0-0.6-0.7-3.2-6.9-3.2c-6.2,0-11.5,1.2-12.1,2.8c-0.6,1.6-1.8,5.3-2.6,9.2c-1.1,5.6-12.4,25.7-18.8,36.2
	c-2.1-4.1-3.9-7.7-4.3-10.6c-0.6-4.4-1.2-7-0.5-12.1c0.7-5.2,3.7-12.5,3.6-13.1c0-0.6-0.7-3.2-6.9-3.2c-6.2,0-11.5,1.2-12.1,2.8
	c-0.6,1.6-1.3,5.5-2.6,9.2c-1.3,3.7-16.3,37.2-20.2,45.9c-2,4.4-3.8,8-5,10.4c0,0,0,0,0,0s-0.1,0.2-0.2,0.4
	c-1.1,2.1-1.7,3.2-1.7,3.2s0,0,0,0c-0.8,1.5-1.7,2.9-2.2,2.9c-0.3,0-0.9-4,0.1-9.6c2.2-11.6,7.6-29.7,7.6-30.4c0-0.3,1-3.5-3.5-5.1
	c-4.4-1.6-5.9,1.1-6.3,1.1c-0.4,0-0.7,0.9-0.7,0.9s4.9-20.4-9.3-20.4c-8.9,0-21.2,9.7-27.2,18.5c-3.8,2.1-12,6.5-20.7,11.3
	c-3.3,1.8-6.7,3.7-10,5.5c-0.2-0.2-0.4-0.5-0.7-0.7c-17.2-18.4-49-31.3-47.7-56c0.5-9,3.6-32.6,61.1-61.3
	c47.1-23.5,84.8-17,91.4-2.7c9.3,20.5-20.2,58.5-69.1,64c-18.6,2.1-28.5-5.1-30.9-7.8c-2.6-2.8-3-3-3.9-2.4c-1.6,0.9-0.6,3.4,0,4.9
	c1.5,3.8,7.5,10.5,17.7,13.9c9,3,30.9,4.6,57.3-5.7c29.6-11.5,52.8-43.4,46-70C185.9,1.1,141-7.8,98.4,7.3
	c-25.3,9-52.7,23.1-72.5,41.6c-23.4,21.9-27.2,41-25.6,49c5.5,28.3,44.5,46.8,60.2,60.5c-0.8,0.4-1.5,0.8-2.2,1.2
	c-7.8,3.9-37.6,19.5-45.1,35.9c-8.4,18.7,1.3,32.1,7.8,33.9c20.1,5.6,40.7-4.5,51.8-21c11.1-16.5,9.7-38,4.6-47.8
	c-0.1-0.1-0.1-0.2-0.2-0.4c2-1.2,4.1-2.4,6.1-3.6c4-2.3,7.9-4.5,11.3-6.4c-1.9,5.2-3.3,11.5-4,20.5c-0.9,10.6,3.5,24.3,9.2,29.7
	c2.5,2.4,5.5,2.4,7.4,2.4c6.6,0,9.6-5.5,13-12c4.1-8,7.7-17.3,7.7-17.3s-4.5,25.1,7.8,25.1c4.5,0,9-5.8,11.1-8.8c0,0,0,0,0,0
	s0.1-0.2,0.3-0.6c0.5-0.7,0.7-1.2,0.7-1.2s0,0,0-0.1c1.8-3.1,5.8-10.3,11.9-22.1c7.8-15.3,15.2-34.4,15.2-34.4s0.7,4.7,3,12.4
	c1.3,4.6,4.2,9.6,6.4,14.4c-1.8,2.5-2.9,3.9-2.9,3.9s0,0,0,0.1c-1.4,1.9-3.1,4-4.8,6c-6.1,7.3-13.5,15.7-14.4,18.1
	c-1.2,2.8-0.9,4.9,1.3,6.6c1.6,1.2,4.5,1.4,7.6,1.2c5.5-0.4,9.4-1.7,11.3-2.6c3-1.1,6.5-2.7,9.7-5.1c6-4.4,9.7-10.8,9.3-19.2
	c-0.2-4.6-1.7-9.2-3.5-13.5c0.5-0.8,1.1-1.6,1.6-2.4c9.5-13.9,16.9-29.1,16.9-29.1s0.7,4.7,3,12.4c1.2,3.9,3.4,8.2,5.5,12.4
	c-8.9,7.3-14.5,15.7-16.4,21.2c-3.6,10.2-0.8,14.9,4.5,15.9c2.4,0.5,5.7-0.6,8.2-1.7c3.1-1,6.9-2.8,10.4-5.3
	c6-4.4,11.8-10.6,11.5-19c-0.2-3.8-1.2-7.6-2.6-11.3c7.6-3.2,17.4-4.9,29.9-3.4c26.8,3.1,32,19.9,31,26.9c-1,7-6.6,10.8-8.5,12
	c-1.9,1.2-2.5,1.6-2.3,2.4c0.2,1.3,1.1,1.2,2.7,0.9c2.2-0.4,14.1-5.7,14.6-18.6C308.6,150.6,292.9,132.5,265,132.7z M58.6,202.3
	c-8.9,9.7-21.3,13.3-26.6,10.3c-5.7-3.3-3.5-17.6,7.4-27.8c6.6-6.3,15.2-12,20.9-15.6c1.3-0.8,3.2-1.9,5.5-3.3
	c0.4-0.2,0.6-0.3,0.6-0.3l0,0c0.4-0.3,0.9-0.5,1.4-0.8C71.7,179.3,67.9,192.1,58.6,202.3z M123.2,158.3c-3.1,7.5-9.6,26.8-13.5,25.8
	c-3.4-0.9-5.4-15.5-0.7-30c2.4-7.3,7.5-15.9,10.5-19.3c4.8-5.4,10.2-7.2,11.5-5C132.7,132.7,125.2,153.6,123.2,158.3z M176.6,183.8
	c-1.3,0.7-2.5,1.1-3.1,0.8c-0.4-0.2,0.5-1.1,0.5-1.1s6.7-7.2,9.3-10.5c1.5-1.9,3.3-4.2,5.2-6.7c0,0.3,0,0.5,0,0.8
	C188.6,175.7,180.3,181.5,176.6,183.8z M217.8,174.4c-1-0.7-0.8-2.9,2.4-9.9c1.3-2.7,4.1-7.4,9.1-11.8c0.6,1.8,0.9,3.6,0.9,5.2
	C230.2,168.7,222.4,172.8,217.8,174.4z"/>
<g>
	<path fill="#1C3664" d="M105.3,294.9c-7.9,0-10-2-12.2-2c-2.1,0-4.3,1.7-6,1.7c-1.7,0-2.8-0.3-2.8-2.8c0-1.1,0.2-3.7,0.2-12.8
		v-43.9c0-1.9-0.5-3.2-1.5-3.2c-2.1,0-2.4-1.1-2.4-2.3c0-2.5,2.6-3.6,4.8-3.6h8.1c2.2,0,2.6,2,2.6,5.6v20c3.4-3.3,7.7-4.8,12.8-4.8
		c11.6,0,17.8,8.6,17.8,22.8C126.7,283.2,119.6,294.9,105.3,294.9z M104.8,253.3c-6.8,0-8.7,6.6-8.7,11.1v18.9c0,4,3.5,5.9,7.1,5.9
		c7.5,0,10.9-6.5,10.9-17.9C114.1,262,112.1,253.3,104.8,253.3z"/>
	<path fill="#1C3664" d="M163.7,259c-3,0-3.8-3.8-7.5-3.8c-2.5,0-7.4,2.2-7.4,9.5v20c0,1.9,0.5,3.2,1.3,3.2c2.1,0,2.5,1.1,2.5,2.3
		c0,2.3-2.6,3.6-4.6,3.6h-10.1c-3,0-4.6-1.3-4.6-3.6c0-1.1,0.2-2.3,2.3-2.3c1.2,0,1.6-0.9,1.6-3.2V257c0-2-0.6-3.3-1.5-3.3
		c-2.2,0-2.4-0.9-2.4-2.3c0-2.3,2.6-3.4,4.6-3.4h8.2c2.6,0,2.7,3.1,2.7,6.3c3.9-4.4,7.7-7.6,12.3-7.6c4,0,6.5,1.2,6.5,5.3
		C167.7,253.5,167.6,259,163.7,259z"/>
	<path fill="#1C3664" d="M204.4,284.5c2.1-2,2.6-3.3,4.3-3.3c1.3,0,2.2,1,2.2,2.5c0,1.5-1.2,4.1-5.9,7.6c-2.9,2.2-7.1,3.6-12.6,3.6
		c-14.5,0-20.2-11.1-20.2-23.5c0-19.1,11.2-24.6,20.9-24.6c10.4,0,18.6,5.5,18.6,18.9c0,3.4-0.9,5.1-5.1,5.1h-22.2
		c0,11.3,3.6,17.5,10.7,17.5C199.3,288.3,201.9,286.9,204.4,284.5z M192.7,252.3c-7.6,0-8.2,9-8.2,12.5c0,0.9,0.5,1,0.9,1h11.7
		c1.4,0,2.9-0.7,2.9-3.1C200.1,257.2,197.9,252.3,192.7,252.3z"/>
	<path fill="#1C3664" d="M251.3,294.7c-3.3,0-8.4-0.5-9.5-7c-1.6,2.4-5.9,7.4-13.4,7.4c-4.8,0-10.7-2.1-10.7-10.9
		c0-7,3.6-10.7,12.9-14.1c4.3-1.6,11.1-4.3,11.1-6.9V259c0-4.9-1.4-6.4-3.7-6.4c-1.6,0-3.5,0.4-4.8,0.9c-2.5,1.3-4.2,3.1-5.7,6.5
		c-1.2,2.9-1.7,4.6-3.7,4.6c-2.9,0-3.3-4-3.3-7.8c0-3.3,0.8-5.3,3.2-6.5c1.8-0.9,5.2-1.6,9.4-2.3c3.2-0.5,6-1,9.2-1
		c5.4,0,11.1,1.9,11.1,10.9v27.5c0,1.9,0.6,3.4,1.4,3.7c1.2,0.3,2.5,0.6,2.5,1.8C257.4,293,254.8,294.7,251.3,294.7z M241.8,270.1
		c0,0-1.4,0.7-2.8,1.3c-6.8,3.1-9.4,5.7-9.4,11c0,2.9,1.9,5.3,4.7,5.3c3.9,0,7.6-4.9,7.6-8.9V270.1z"/>
	<path fill="#1C3664" d="M300.4,294.6c-4.5,0-6.7-2.4-11.8-9.8l-8.4-12.2h-1.3v12.2c0,2.8,0.6,3.2,1.4,3.2c1.8,0,2.5,1.1,2.5,2.3
		c0,2.4-2.1,3.6-4.7,3.6h-10.1c-2.1,0-4.7-1.2-4.7-3.6c0-1.1,0.3-2.3,2.4-2.3c1,0,1.6-0.4,1.6-3.2v-50.2c0-1.9-0.6-2.7-1.5-2.7
		c-2.2,0-2.4-1.1-2.4-2.3c0-2.5,2.6-3.6,4.6-3.6h8.3c2.3,0,2.6,2.4,2.6,5.4V268h0.8c5-1.3,12.2-7.8,12.2-11.9c0-3.6-3.2-2.6-3.2-5.4
		c0-2.6,2.7-2.6,4.7-2.6h7.6c2.1,0,3.8,0.9,3.8,2.6c0,2-3.5,5.4-6.8,8.9c-3.1,3.2-6,6.1-8,7.8c2.1,2.9,5.5,7.9,9.8,13.5
		c5,6.3,7.7,6.6,7.7,8.6C307.3,292.2,304.6,294.6,300.4,294.6z"/>
</g>
</svg>
